<!-- Generated by IcoMoon.io -->
<svg version="1.1" xmlns="http://www.w3.org/2000/svg" width="24" height="24" viewBox="0 0 768 768">
<title></title>
<g id="icomoon-ignore">
</g>
<path d="M744.197 653.547l-181.914-154.721c-18.805-16.925-38.917-24.695-55.164-23.945 42.942-50.301 68.881-115.558 68.881-186.882 0-159.058-128.942-288-288-288-159.057 0-288 128.942-288 288s128.941 288 288 288c71.324 0 136.581-25.939 186.882-68.883-0.75 16.246 7.020 36.358 23.945 55.164l154.721 181.914c26.491 29.435 69.766 31.916 96.165 5.517s23.919-69.673-5.515-96.165zM288 480c-106.038 0-192-85.962-192-192s85.962-192 192-192 192 85.962 192 192-85.961 192-192 192z"></path>
</svg>
